<svg xmlns="http://www.w3.org/2000/svg" width="682.667" height="682.667" viewBox="0 0 512 512">
  <path d="M214 .7c-5.9 1-15.3 4.7-20.8 8.3-12.6 8.1-26.3 23.3-35.7 39.6-2.8 4.8-5.4 8.6-5.8 8.6s-4.6-.3-9.3-.7c-16.8-1.4-37.5 3.2-51.9 11.7-8.5 5-22 18.3-26.2 25.8-12.5 22.1-10.2 47.6 6.2 68.2 11 14 32.4 25.5 52.8 28.4l4.7.6v6.2c-.1 6-.2 6.2-4 8.8-18.1 12.6-14.1 40.4 6.9 47.6 1.9.7 5.8 1.2 8.7 1.2 6 0 5.1-2 8.4 17.9 2 11.5 7.6 37.1 10 45.1.5 1.9 1 4 1 4.6s-11 11.1-24.5 23.4c-17.5 15.9-25 23.5-26.5 26.5-3.8 7.9-1.9 20.8 3.9 25.9 1.1 1.1 2.1 2.2 2.1 2.6s-3.5 1.7-7.7 2.9c-13.9 4-21.7 8.5-30.8 17.5-6.5 6.4-9.1 9.9-12.4 16.6-6.1 12.6-7.1 18.6-7.1 45.8v23.3l2.5 2.4c3 3.1 6.9 3.2 9.9.2 2.3-2.3 2.4-2.9 2.8-26.8.5-21.2.8-25.3 2.6-30.9 2.6-8 6.4-14.1 12.6-20.1 6.5-6.4 13.8-10 29.8-14.8L130 413l4 2.6c2.2 1.5 4 2.8 4 3.1 0 .2-2.2 4.7-4.9 10.1-12.4 24.7-11.4 32.6 7.2 60.5 6.3 9.5 12.6 18.4 14 19.9 3.1 3.3 6.5 3.6 10.1.7 4.8-3.8 3.8-6.5-9.5-26.6-12.8-19.2-15.3-24.9-14.2-32 .3-2.1 3.9-10.4 7.9-18.5 4.1-8.1 7.4-15.8 7.4-17.1 0-3-2.6-5.4-19.3-17.2-7.6-5.3-14.2-10.6-14.7-11.6-2.5-4.5-1.2-7.6 5.8-14.2 11.9-11.4 35.6-32.7 36.2-32.7.4 0 1.4 2.6 2.4 5.7 3.5 11.3 10.9 29 18.2 44l7.4 15.1V455c0 42.8.2 50.5 1.5 53 2.9 5.6 10.4 4.8 13.3-1.3l1.3-2.7h48c44.8 0 48 .1 48.6 1.7 2.7 7.7 11.7 8.4 14.2 1.2.7-2.2 1.1-19.1 1.1-52.6v-49.5l7.4-15.1c7.3-15 14.7-32.7 18.2-43.9 1-3.2 2-5.8 2.3-5.8.7 0 13.6 11.6 30.9 27.7 10.8 10.2 12.2 11.8 12.2 14.8 0 4.4-1.4 5.9-16.5 16.6-15.7 11.1-18.5 13.6-18.5 16.5 0 1.3 3.4 9.1 7.5 17.5 6.8 13.7 7.5 15.7 7.5 21 0 3.3-.6 7.4-1.4 9.3-.7 1.8-6.6 11.1-13 20.7-12.8 19.2-13.8 22-9 25.8 2.9 2.3 5.5 2.6 8.4 1.1 2.5-1.3 26.3-37.3 28.4-42.9 4.5-11.7 2.8-23.5-5.4-38.8-2.8-5-5-9.6-5-10.1s1.8-2.2 3.9-3.6l3.9-2.8 13.8 4.2c20.2 6.1 27.5 10.4 35.3 20.8s8.4 13.3 9.1 43l.5 26.4 2.8 2.4c3.6 3.1 7.1 3.1 10.2-.1l2.5-2.4v-22.6c0-26.5-1.1-33.8-7.2-46.4-3.1-6.5-5.7-10.1-11.6-16-9.1-9.2-15.4-12.9-28.7-17.2-5.5-1.7-10.2-3.3-10.4-3.5-.3-.3.7-1.7 2.2-3.2 6.2-6.4 7.5-17.2 3.2-25.8-1.9-3.9-7.5-9.6-26.5-26.8-13.2-12.1-24-22.3-24-22.8s1.3-6.2 2.9-12.6c3.8-14.8 6.6-28.1 8.6-40.2 2.7-16.6 1.8-15 8.4-15 15.2 0 28.7-15.2 26.7-29.9-1-7.4-5.2-14.7-10.7-18.9-4.9-3.6-4.9-3.7-4.9-9.3v-5.7l4.8-.6c20.2-2.9 40.4-13.6 52.1-27.6 20.6-24.7 19.8-57.1-2.1-80.5-12.5-13.4-28.3-21.7-48-25.1-8.1-1.4-23.6-1.5-30-.1-.6.1-2.8-2.9-4.9-6.6-12.8-23-32.5-42-49.6-47.8-10.1-3.5-23.6-3.4-31.8.3-3.3 1.4-8.8 3.8-12.3 5.2l-6.2 2.7-8.8-3.9C232.5.5 224.4-1 214 .7m25.5 20.1c8.7 4 10.9 4.6 16.5 4.6s7.8-.6 16.5-4.6c5.5-2.6 12.1-4.9 14.6-5.3 6-.9 15.8 1.6 22.7 5.7 9.9 6 22.5 19.7 30.6 33.2 3.8 6.3 4.2 7.6 2.5 7.6-.5 0-11 4-23.2 8.9C283 85.5 275.6 87.4 256 87.4c-19.5 0-27.7-2.1-62-15.9-11.3-4.6-21.7-8.6-23.2-9-1.6-.4-2.8-1-2.8-1.4 0-1.2 7.1-12.4 11.4-18 5.7-7.3 18.2-19.2 23.8-22.5 6-3.5 15.2-5.6 21.3-5 2.9.3 9.1 2.4 15 5.2m-87.7 52.7c9.2 1.9 15.7 4.2 40.5 14.2 53.6 21.7 76.3 21.4 131.7-1.7 26.4-11 37.8-14 52.8-14 12.9 0 21.6 2 32.8 7.5 12.2 5.9 20.5 14 26 25 3.9 7.8 3.9 8 3.9 19.4 0 11.2-.1 11.9-3.4 18.6-4.9 10.1-15 19.9-26.1 25.3-8.6 4.2-18.2 7.2-23.2 7.2h-2.7l-.3-19.3-.3-19.4-3-4.9c-1.9-3-4.9-6-7.9-7.9l-4.9-3-85-.3c-91.6-.3-88.5-.4-90.2 4.8-.6 1.8-1.5 2-8.6 2-7.5 0-8-.1-8.9-2.4-1.5-4.1-4.1-4.8-17.9-4.4-12.2.3-13 .4-17.7 3.3-3 1.9-6 4.9-7.9 7.9l-3 4.9-.3 19.4-.4 19.3h-2.7c-9.3 0-27.4-8-36.5-16.2-23.4-20.8-22-53.6 2.9-72.5 7.5-5.7 16.8-10.2 26-12.4 8.8-2.2 25-2.4 34.3-.4m181.9 91.9c2.8 2.4 2.8 2.4 3.3 18.3.6 17.3 1.2 19.3 7.2 24.9 5.4 5.2 8.3 6.1 20.6 6.6 12.8.5 15.3 1.6 18.6 8.3 1.7 3.5 1.8 4.2.5 7.9-.9 2.5-2.7 4.9-4.8 6.3-3.2 2.2-4.3 2.3-21 2.3-15.1 0-37.5-1.8-44.6-3.6-1.8-.4-2-1.3-2-7.9 0-6.3-.3-7.8-2.2-9.6-2.8-2.8-7.7-2.9-10.4-.2-1.3 1.3-2.2 3.9-2.6 7.7-.6 5.7-.6 5.8-3.4 5.2-1.6-.3-7-2.2-12.1-4.1-17.7-6.9-19.8-7.5-24.8-7.5s-7 .6-25 7.5c-5.2 2-10.9 3.9-12.7 4.2l-3.3.6v-6c0-4.7-.4-6.4-2-7.8-3.1-2.8-7.9-2.4-10.8 1-2.1 2.5-2.4 3.6-2 9.6.3 6.3.2 6.8-1.8 7.3-7 1.8-30.2 3.6-45.6 3.6-17.5 0-17.7 0-20.7-2.6-6.1-5.1-5.8-14.7.6-19 2.6-1.7 5.1-2.2 14.2-2.6 9.8-.5 11.6-.9 16.3-3.5 6.7-3.8 11.2-10.7 12.2-18.9 1.2-10.5 1.6-10.7 25.6-12.9 34.3-3.2 86.2-10.2 113.5-15.4 13.8-2.6 15.9-2.5 19.2.3m-62.4 75c19.6 7.9 41.8 12.7 66.5 14.5 6.8.5 12.6 1.1 12.8 1.4.3.3 0 3.9-.7 8.1l-1.2 7.6h-3.6c-6.7 0-30.6-2.9-41.3-5-12.8-2.5-27.4-6.7-37.8-10.9-9.1-3.7-11.1-3.8-18.4-.6-9.1 4-27.7 9.3-42 11.9-10.9 2-33.6 4.6-40.5 4.6-1.5 0-2-1.4-3-7.6-.7-4.2-1.1-7.7-.9-7.9s5.9-.9 12.8-1.5c31.2-2.8 45.6-6.2 77-18.6 4.5-1.8 6.9-1.3 20.3 4m.2 34.1c20.1 6.8 51.3 12.5 67.7 12.5 7.1 0 7-.8 2.2 18.3-9 36.1-23.4 72.4-38.5 97.3-11.5 19.2-27.4 37.7-41.2 48.3l-5.7 4.3-5.4-4.1c-14-10.8-31.3-31.2-42.2-49.7-6.1-10.4-16.5-31.7-20.9-42.9-8.4-21.2-21.5-66.5-20.2-69.9.5-1.2 2.1-1.6 5.9-1.6 18.7 0 52.9-6.8 74.3-14.8 4.4-1.7 8.7-2.8 9.5-2.5s7.4 2.4 14.5 4.8"/>
  <path d="M194.9 194.9c-3.4 3.5-3.6 5.9-.8 9.5 2 2.5 2.3 2.6 13.8 2.6 13.4 0 15.1-.8 15.1-7.3 0-2.7-.7-4.1-2.6-5.6-2.3-1.8-4.1-2.1-12.6-2.1-9.7 0-10 .1-12.9 2.9m96.5-.6c-3.2 2.8-3.6 7.8-.8 10.8 1.5 1.7 3.2 1.9 13.4 1.9 12.8 0 14.1-.5 15.5-6.2.6-2.2.1-3.3-2.3-5.8-3-2.9-3.2-3-13.1-3-9 0-10.2.2-12.7 2.3"/>
</svg>
